# xmcd
# 
# Track frame offsets:
#     150
#     29045
#     49431
#     79002
#     98686
# 
# Disc length: 1453
# 
# Revision: 0
# Processed by: cddbd v1.5.2PL0 Copyright (c) Steve Scherf et al.
# Submitted via: fre:ac v1.0.31
# 
DISCID=3b05ab05
DTITLE=Rainbow - The King's Return [Disc 2]
DYEAR=1978
DGENRE=Hard Rock
TTITLE0=Still I'm Sad
TTITLE1=Beethoven 9th/David Stone Solo
TTITLE2=Cozy Powell Solo feat. 1812 Overture
TTITLE3=Still I'm Sad (Return)
TTITLE4=Somewhere Over The Rainbow
EXTD=
EXTT0=
EXTT1=
EXTT2=
EXTT3=
EXTT4=
PLAYORDER=
